<svg xmlns="http://www.w3.org/2000/svg" xmlns:xlink="http://www.w3.org/1999/xlink" viewBox="0 0 353.89859 595.9472"><defs><clipPath id="a" transform="translate(-194.636 161.2893)"><rect width="539.77339" height="387.3126" fill="none"/></clipPath></defs><g clip-path="url(#a)"><path d="M421.95159-160.9143V17.7998A74.1958,74.1958,0,0,1,347.9733,91.7781h-.00021a74.19581,74.19581,0,0,1-73.9783-73.9783V-160.9143" transform="translate(-194.636 161.2893)" fill="none" stroke="#f7ed8b" stroke-linecap="round" stroke-linejoin="round" stroke-width="0.75"/><path d="M195.011,434.2829V317.6156a46.0551,46.0551,0,0,1,45.92009-45.9201h.0001a46.055,46.055,0,0,1,45.92011,45.9201V434.2829" transform="translate(-194.636 161.2893)" fill="none" stroke="#860cd1" stroke-linecap="round" stroke-linejoin="round" stroke-width="0.75"/><path d="M548.15959-1.8119V161.3575a46.0849,46.0849,0,0,1-45.9499,45.9498h-.0001a46.08487,46.08487,0,0,1-45.9498-45.9498V-3.8137" transform="translate(-194.636 161.2893)" fill="none" stroke="#8be1e5" stroke-linecap="round" stroke-linejoin="round" stroke-width="0.75"/></g></svg>