<svg xmlns="http://www.w3.org/2000/svg" xmlns:xlink="http://www.w3.org/1999/xlink" viewBox="0 0 460.70813 320.7134"><defs><clipPath id="a"><path d="M329.81512,215.73064h-234.17V86.60606c0-7.84169,6.35695-31.83281,12.83606-32.0599H315.22261c8.66927.22709,14.59251,23.7845,14.59251,31.09119Z" fill="none"/></clipPath></defs><g style="isolation:isolate"><path d="M165.9714,169.92585C117.90041,121.85486,0,104.1445,0,192.1903S72.86549,360.18574,163.94736,299.4645,165.9714,169.92585,165.9714,169.92585Z" fill="#7f9ddd" opacity="0.35" style="mix-blend-mode:multiply"/><path d="M328.213,79.01709c-6.74873,39.97757,25.40741,89.421,68.21167,46.70587s56.47793-106.74952-4.53544-108.84977S328.213,79.01709,328.213,79.01709Z" fill="#7f9ddd" opacity="0.35" style="mix-blend-mode:multiply"/><path d="M152.1562,175.2158c-15.2225,5.67289-32.49857,108.544,55.45233,108.544s97.37421-60.46624,72.24538-117.79138" fill="none" stroke="#fff" stroke-linecap="round" stroke-linejoin="round" stroke-width="0.5" stroke-dasharray="4" opacity="0.5"/><path d="M230.34009,78.36879s40.18359-.48414,40.18359-35.34219" fill="none" stroke="#fff" stroke-linecap="round" stroke-linejoin="round" stroke-width="0.5" stroke-dasharray="4" opacity="0.5"/><path d="M65.04962,144.60618s-43.02473-39.40939-12.314-88.25049c38.82-61.73779,139.69029-22.94153,123.57492,52.26354" fill="none" stroke="#fff" stroke-linecap="round" stroke-linejoin="round" stroke-width="0.5" stroke-dasharray="4" opacity="0.5"/><g opacity="0.5"><path d="M363.04136,241.73577q1.002-.1572,1.96472-.37448" fill="none" stroke="#fff" stroke-linecap="round" stroke-linejoin="round" stroke-width="0.5"/><path d="M368.69755,240.26626c29.31463-10.92346,25.80993-66.29532-18.75946-69.36991" fill="none" stroke="#fff" stroke-linecap="round" stroke-linejoin="round" stroke-width="0.5" stroke-dasharray="3.85307 3.85307"/><path d="M348.00779,170.79705q-.98712-.03374-1.99988-.0339" fill="none" stroke="#fff" stroke-linecap="round" stroke-linejoin="round" stroke-width="0.5"/></g><polygon points="350.274 9.482 340.485 14.223 330.696 18.964 330.696 9.482 330.696 0 340.485 4.741 350.274 9.482" fill="#7f9ddd"/><path d="M344.25328,185.84612h11.89626a4.47767,4.47767,0,0,1,4.26667,4.6623v.58832h15.88a2.34169,2.34169,0,0,1,2.23134,2.43825v16.93377a2.34169,2.34169,0,0,1-2.23134,2.43825H346.72976a2.339,2.339,0,0,1-2.23121-2.41174Z" fill="#a9ccff" opacity="0.5"/><line x1="30.98346" y1="92.0016" x2="107.33797" y2="92.0016" fill="none" stroke="#002a4a" stroke-miterlimit="10"/><line x1="30.98346" y1="101.94027" x2="107.33797" y2="101.94027" fill="none" stroke="#002a4a" stroke-miterlimit="10"/><rect x="51.56486" y="92.0016" width="40.50736" height="9.7948" fill="#a9ccff" stroke="#002a4a" stroke-miterlimit="10"/><line x1="39.25578" y1="101.90803" x2="115.61029" y2="101.90803" fill="none" stroke="#002a4a" stroke-miterlimit="10"/><line x1="39.25578" y1="111.84671" x2="115.61029" y2="111.84671" fill="none" stroke="#002a4a" stroke-miterlimit="10"/><rect x="59.83718" y="101.90803" width="40.50736" height="9.7948" fill="#a9ccff" stroke="#002a4a" stroke-miterlimit="10"/><line x1="65.63147" y1="112.53588" x2="65.63147" y2="91.70023" fill="none" stroke="#fff" stroke-miterlimit="10"/><circle cx="65.63147" cy="90.82086" r="1.06324" fill="#fff"/><path d="M102.66608,64.86575h220.128A14.13521,14.13521,0,0,1,336.92933,79.001V228.74943a15.17021,15.17021,0,0,1-15.17021,15.17021h-218.058a15.17021,15.17021,0,0,1-15.17021-15.17021V79.001a14.13521,14.13521,0,0,1,14.13521-14.13521Z" fill="#f9eb0f"/><path d="M88.53086,80.036s-.29657-15.17021,14.13522-15.17021h92.60513" fill="none" stroke="#002a4a" stroke-miterlimit="10"/><path d="M120.00508,244.02917h202.789" fill="none" stroke="#002a4a" stroke-miterlimit="10"/><circle cx="215.30329" cy="226.88573" r="6.5786" fill="#f9ebe1"/><path d="M109.84371,72.40742H316.58519a13.22993,13.22993,0,0,1,13.22993,13.22993V215.73064a0,0,0,0,1,0,0h-234.17a0,0,0,0,1,0,0V86.60606A14.19864,14.19864,0,0,1,109.84371,72.40742Z" fill="#42aaed"/><path d="M95.64507,215.73064V86.60606a14.19864,14.19864,0,0,1,14.19864-14.19864H316.58519" fill="none" stroke="#002a4a" stroke-miterlimit="10"/><path d="M322.79411,243.91964c8.37828,0,14.13522-6.79193,14.13522-15.17021V80.036c0-8.37828-5.75694-15.17021-14.13522-15.17021,0,0,21.2004.05977,21.2004,19.66529v138.2384C343.99451,245.19562,322.79411,243.91964,322.79411,243.91964Z" fill="#002a4a"/><path d="M171.97232,283.59455c0-4.0583,2.77673-5.33987,8.33018-5.33987,5.23842,0,15.97218-5.447,19.60737-29.652q.32793-2.18353.5761-4.57349h50.82325a74.42892,74.42892,0,0,1-18.99062,34.0965h6.20365c2.56313,0,5.93907,2.90574,5.93907,5.68247Z" fill="#f9eb0f"/><path d="M242.15535,265.14106c6.92109-8.22264,9.15387-21.11189,9.15387-21.11189H200.486q-.24681,2.3914-.5761,4.57349l36.89037,4.08586a7.99832,7.99832,0,0,1,6.91894,6.1771v0l-.67979,3.22662-3.2608,1.59829A1.40588,1.40588,0,0,0,242.15535,265.14106Z" fill="#002a4a"/><path d="M217.77794,283.71733c0-4.0583,2.66809-5.46265,8.22155-5.46265S246.183,257.42509,246.183,244.02917h5.12627s-.97459,20.828-18.08334,34.0965h5.29637c2.56313,0,5.93907,2.90574,5.93907,5.68247Z" fill="#002a4a"/><polyline points="217.194 215.108 329.815 215.108 329.815 189.599" fill="none" stroke="#002a4a" stroke-miterlimit="10"/><g opacity="0.43" style="mix-blend-mode:overlay"><rect x="96.51596" y="107.56188" width="233.17443" height="86.50019" fill="none" stroke="#fff" stroke-miterlimit="10"/><rect x="120.06124" y="122.28719" width="53.67186" height="57.47964" fill="#fff"/><rect x="102.36169" y="112.28172" width="14.11646" height="4.92006" fill="#fff"/><rect x="124.71778" y="112.28172" width="14.11646" height="4.92006" fill="#fff"/><rect x="146.45286" y="112.28172" width="14.11646" height="4.92006" fill="#fff"/><rect x="168.80895" y="112.28172" width="14.11646" height="4.92006" fill="#fff"/><rect x="189.61253" y="112.28172" width="14.11646" height="4.92006" fill="#fff"/><rect x="211.96861" y="112.28172" width="14.11646" height="4.92006" fill="#fff"/><rect x="233.70369" y="112.28172" width="14.11646" height="4.92006" fill="#fff"/><rect x="256.05978" y="112.28172" width="14.11646" height="4.92006" fill="#fff"/><rect x="102.36169" y="184.62849" width="14.11646" height="4.92006" fill="#fff"/><rect x="124.71778" y="184.62849" width="14.11646" height="4.92006" fill="#fff"/><rect x="146.45286" y="184.62849" width="14.11646" height="4.92006" fill="#fff"/><rect x="168.80895" y="184.62849" width="14.11646" height="4.92006" fill="#fff"/><rect x="189.61253" y="184.62849" width="14.11646" height="4.92006" fill="#fff"/><rect x="211.96861" y="184.62849" width="14.11646" height="4.92006" fill="#fff"/><rect x="233.70369" y="184.62849" width="14.11646" height="4.92006" fill="#fff"/><rect x="256.05978" y="184.62849" width="14.11646" height="4.92006" fill="#fff"/><rect x="275.31085" y="112.28172" width="14.11646" height="4.92006" fill="#fff"/><rect x="275.31085" y="184.62849" width="14.11646" height="4.92006" fill="#fff"/><rect x="293.63042" y="112.28172" width="14.11646" height="4.92006" fill="#fff"/><rect x="293.63042" y="184.62849" width="14.11646" height="4.92006" fill="#fff"/><rect x="312.8815" y="184.62849" width="14.11646" height="4.92006" fill="#fff"/><rect x="185.40835" y="122.28719" width="53.67186" height="57.47964" fill="#fff"/><rect x="250.20666" y="122.28719" width="53.67186" height="57.47964" fill="#fff"/><rect x="315.31484" y="122.28719" width="12.88192" height="57.47964" fill="#fff"/><rect x="97.91014" y="122.28719" width="10.81854" height="57.47964" fill="#fff"/><rect x="312.8815" y="112.28172" width="14.11646" height="4.92006" fill="#fff"/></g><g clip-path="url(#a)"><path d="M252.22184,218.7231s-4.67267-34.65922-5.36872-40.17326l13.908-1.76288,12.6003-1.59713s5.24646,48.96153,2.41067,51.14691" fill="#fff"/><path d="M252.22184,218.7231s-4.67267-34.65922-5.36872-40.17326l13.908-1.76288Z" fill="#002a4a"/><path d="M273.50249,178.38456s3.5879,22.32592,2.84235,36.49132" fill="none" stroke="#002a4a" stroke-linecap="round" stroke-linejoin="round"/><path d="M174.56137,118.4635a235.08936,235.08936,0,0,1,44.91079,12.102l17.23231,3.5872s16.5143,7.91326,26.53958,16.50636c5.82236,4.99059,10.25844,19.26277,10.25844,27.72552l-20.79414,4.15883-4.90076,38.65686s-30.65914,11.99955-76.74638-6.16946l10.98825-60.3743s-13.74084-5.99343-16.43572-9.13746C165.61374,145.519,169.36087,127.56427,174.56137,118.4635Z" fill="#3968cb"/><polygon points="256.712 160.948 257.209 180.829 252.708 182.543 256.712 160.948" fill="#002a4a"/><path d="M180.94726,61.56062c-1.78127-.89064-4.10522,2.28067-5.92976,5.13152s-5.70169,9.35077-5.70169,9.35077a159.43687,159.43687,0,0,0-24.85937,22.9208c-6.72838,7.90758-12.54373,14.93843-16.07877,24.74534,0,0,15.28053,14.71037,37.85923,19.49979l8.32447-24.74534-11.53578-3.61535s19.062-23.41067,21.45672-25.46328c0,0,1.48244.3421,7.0701-.57017s7.98236-1.82454,7.98236-2.85084-.45613-2.50875-7.07009-2.16665l-1.36841-1.7105s10.263-10.37708,10.94725-11.74549-.68421-1.93857-4.78942-.6842A16.57929,16.57929,0,0,0,191.09627,72.85s2.73681-3.99119,4.67539-6.842.91227-3.64909-.114-3.64909-8.36418,5.83709-10.30275,8.68794c0,0,6.19754-10.17038,4.82913-11.08265s-7.74758,4.96494-11.05456,9.52629C179.12944,69.49043,182.54373,62.35885,180.94726,61.56062Z" fill="#fff"/><path d="M166.2369,143.20884c-22.5787-4.78942-37.85923-19.49979-37.85923-19.49979,7.46032-22.32125,40.93814-47.66614,40.93814-47.66614L176.69,63.77829" fill="none" stroke="#002a4a" stroke-linecap="round" stroke-linejoin="round"/><path d="M222.12489,98.90351c-9.24465,21.51178-3.183,27.58363-3.183,27.58363l.53028,4.07834s-.49288,6.7182,5.52851,8.33187c7.41725,1.98774,11.7038-4.74467,11.7038-4.74467l1.85636-3.67172s8.30967-3.4253,9.67671-24.64958c0,0-2.54063-4.97786-12.31087-7.19158S222.12489,98.90351,222.12489,98.90351Z" fill="#fff"/><path d="M221.45448,127.84766a13.39926,13.39926,0,0,0,13.95622,3.11963,15.45218,15.45218,0,0,1-6.73182,2.95543C224.40991,134.74368,221.45448,127.84766,221.45448,127.84766Z" fill="#002a4a"/><path d="M239.25177,100.33556l8.98577,5.49582-2.86778,10.59129,1.74668.23625,4.245-10.322s6.77862-5.1634-.20356-10.65871c-4.80488-3.78166-7.75343.17684-7.75343.17684Z" fill="#002a4a"/><path d="M228.61592,90.25544c-2.31473-1.00787-11.605-.17041-9.43423,9.82127,0,0-1.215,5.95031-1.3786,8.78347-.17782,3.0801,1.97949,2.78274,2.07774,1.08084.008-.13808,2.75149-10.13223,2.75149-10.13223l5.74389-1.07463Z" fill="#002a4a"/><path d="M219.713,109.30709c-.13541-2.1481-1.88823-3.92623-2.94871-2.86344s-2.51674,7.71062.6837,8.51984C217.448,114.96349,219.97379,113.44354,219.713,109.30709Z" fill="#fff"/><path d="M244.71785,122.281c2.30741,1.02457,5.52231-2.44761,5.18969-5.3393s-2.54444-3.51894-3.54512-1.32868A32.91387,32.91387,0,0,0,244.71785,122.281Z" fill="#fff"/><path d="M182.29112,81.98342s4.48137-5.43854,10.17356,1.81379" fill="none" stroke="#002a4a" stroke-linecap="round" stroke-linejoin="round"/><path d="M153.75746,111.38368a10.61841,10.61841,0,0,1,9.26813,3.46447l21.45672-25.46328s12.8919-.08505,15.05246-3.421" fill="none" stroke="#002a4a" stroke-linecap="round" stroke-linejoin="round"/><path d="M182.04946,155.025s3.06321-15.87376,7.01709-22.52347" fill="none" stroke="#002a4a" stroke-linecap="round" stroke-linejoin="round"/><path d="M184.26067,141.0207l-6.51078,11.79312,4.29957,2.21121s1.33945-6.94111,3.39016-13.56629Z" fill="#002a4a"/><path d="M215.72189,127.185l-.43163,2.80448c-.18053,3.127-.36249,9.86675,8.46012,12.31424,8.789,2.43815,13.36866-1.64164,15.75573-5.36532l1.19459-2.32381" fill="none" stroke="#002a4a" stroke-linecap="round" stroke-linejoin="round"/><polyline points="276.932 177.38 252.708 182.543 257.149 158.415" fill="none" stroke="#002a4a" stroke-linecap="round" stroke-linejoin="round"/><line x1="165.61374" y1="145.51903" x2="174.56137" y2="118.4635" fill="none" stroke="#002a4a" stroke-linecap="round" stroke-linejoin="round"/><path d="M191.09627,82.08671s9.63181-9.98381,10.94725-11.74549-3.12088-2.13137-7.18751.08679l-4.06662,2.21816h0s6.09994-7.39387,6.09994-8.87264-1.23171-1.41468-1.23171-1.41468" fill="none" stroke="#002a4a" stroke-linecap="round" stroke-linejoin="round"/><path d="M185.98337,69.87347s5.44371-8.9127,4.20063-9.90933" fill="none" stroke="#002a4a" stroke-linecap="round" stroke-linejoin="round"/><path d="M180.94726,61.56062c.78464.36444.75543,4.21953-1.81782,7.92981" fill="none" stroke="#002a4a" stroke-linecap="round" stroke-linejoin="round"/><path d="M236.28174,86.31391c-7.49764,0-17.30657,4.053-14.10361,12.81359s20.68941,4.67286,23.86877.13092S246.95529,86.31391,236.28174,86.31391Z" fill="#002a4a"/></g><path d="M291.29641,248.44161l12.41991-2.611,54.56881-26.46813a2.57608,2.57608,0,0,0,1.28212-3.23739l-2.071-5.4194a2.57609,2.57609,0,0,0-3.55785-1.38483l-60.624,30.293a4.92326,4.92326,0,0,0-2.6477,5.25965Z" fill="#002a4a"/><polygon points="344.867 213.828 349.647 211.488 349.354 223.582 344.073 226.098 344.867 213.828" fill="#fff" stroke="#fff" stroke-linecap="round" stroke-linejoin="round"/><polygon points="333.163 219.778 337.942 217.437 337.65 229.532 332.369 232.048 333.163 219.778" fill="#fff" stroke="#fff" stroke-linecap="round" stroke-linejoin="round"/><polygon points="321.166 225.436 325.945 223.095 325.652 235.189 320.372 237.705 321.166 225.436" fill="#fff" stroke="#fff" stroke-linecap="round" stroke-linejoin="round"/><polygon points="309.966 230.94 314.745 228.599 314.452 240.694 309.172 243.21 309.966 230.94" fill="#fff" stroke="#fff" stroke-linecap="round" stroke-linejoin="round"/><polygon points="299.491 236.436 304.27 234.095 303.978 246.19 298.697 248.706 299.491 236.436" fill="#fff" stroke="#fff" stroke-linecap="round" stroke-linejoin="round"/><path d="M291.29641,248.44161,304.0108,292.364a4.68994,4.68994,0,0,0,5.55956,3.26576l62.53305-14.43071a4.68992,4.68992,0,0,0,3.51387-5.63036l-9.92794-42.76654-61.973,13.02842Z" fill="#002a4a"/><polygon points="300.104 248.454 294.948 249.773 303.017 258.787 308.668 257.276 300.104 248.454" fill="#fff" stroke="#fff" stroke-linecap="round" stroke-linejoin="round"/><polygon points="311.783 246.147 306.627 247.466 314.696 256.48 320.347 254.969 311.783 246.147" fill="#fff" stroke="#fff" stroke-linecap="round" stroke-linejoin="round"/><polygon points="322.596 243.84 317.441 245.159 325.51 254.173 331.161 252.662 322.596 243.84" fill="#fff" stroke="#fff" stroke-linecap="round" stroke-linejoin="round"/><polygon points="334.564 241.677 329.408 242.996 337.477 252.011 343.128 250.499 334.564 241.677" fill="#fff" stroke="#fff" stroke-linecap="round" stroke-linejoin="round"/><polygon points="345.377 239.514 340.221 240.834 348.291 249.848 353.942 248.336 345.377 239.514" fill="#fff" stroke="#fff" stroke-linecap="round" stroke-linejoin="round"/><polygon points="357.2 236.919 352.044 238.238 360.114 247.253 365.765 245.741 357.2 236.919" fill="#fff" stroke="#fff" stroke-linecap="round" stroke-linejoin="round"/><path d="M303.94056,269.64039l3.72879,16.1581a4.68992,4.68992,0,0,0,5.65329,3.50848l52.23241-12.40221a4.68994,4.68994,0,0,0,3.49992-5.55705l-3.0872-14.23541a4.68994,4.68994,0,0,0-5.49519-3.60646l-52.874,10.47953A4.68993,4.68993,0,0,0,303.94056,269.64039Z" fill="none" stroke="#fff" stroke-linecap="round" stroke-linejoin="round"/><g opacity="0.5"><path d="M411.52845,239.3242H395.77208v14.55568a4.34746,4.34746,0,0,0,4.28483,4.4075H413.905s-2.37655-.84194-2.37655-5.117Z" fill="none" stroke="#fff" stroke-miterlimit="10"/><path d="M411.53914,253.59874c.19813,3.90354,2.36586,4.68864,2.36586,4.68864,2.695,0,2.59139-4.79448-.05182-4.79448A12.89443,12.89443,0,0,0,411.53914,253.59874Z" fill="none" stroke="#fff" stroke-miterlimit="10"/><line x1="397.63618" y1="242.29063" x2="409.43724" y2="242.29063" fill="none" stroke="#fff" stroke-miterlimit="10"/><line x1="397.63618" y1="244.40877" x2="409.43724" y2="244.40877" fill="none" stroke="#fff" stroke-miterlimit="10"/><line x1="397.63618" y1="246.6782" x2="409.43724" y2="246.6782" fill="none" stroke="#fff" stroke-miterlimit="10"/><line x1="397.63618" y1="249.4106" x2="409.43724" y2="249.4106" fill="none" stroke="#fff" stroke-miterlimit="10"/><line x1="397.63618" y1="251.82226" x2="409.43724" y2="251.82226" fill="none" stroke="#fff" stroke-miterlimit="10"/><line x1="397.63618" y1="254.09169" x2="409.43724" y2="254.09169" fill="none" stroke="#fff" stroke-miterlimit="10"/></g><path d="M240.84216,298.89908s8.92469-18.09764,25.96274-18.09764c13.27808,0,19.65758,6.39235,21.8266,12.79782a4.05785,4.05785,0,0,1-3.73766,5.39336C272.57246,299.23,239.96424,299.777,240.84216,298.89908Z" fill="#f9eb0f"/><path d="M267.35145,281.0577c3.85649-.31315,7.1332,2.75241,9.48,5.8286a29.48909,29.48909,0,0,1,5.52238,12.44083" fill="none" stroke="#002a4a" stroke-miterlimit="10"/><rect x="61.05347" y="280.1846" width="147.11446" height="5.55467" rx="2.77733" fill="#f9eb0f"/><rect x="164.7788" y="280.1846" width="43.38913" height="5.55467" rx="2.77733" fill="#002a4a"/><g opacity="0.28"><rect x="25.45248" y="147.12608" width="32.43797" height="22.00535" fill="none" stroke="#fff" stroke-miterlimit="10"/><rect x="25.45248" y="147.12608" width="2.86532" height="2.52487" fill="#fff"/><rect x="25.45248" y="166.60656" width="2.86532" height="2.52487" fill="#fff"/><rect x="55.02513" y="147.12608" width="2.86532" height="2.52487" fill="#fff"/><rect x="55.02513" y="166.60656" width="2.86532" height="2.52487" fill="#fff"/><rect x="31.03049" y="152.49575" width="21.85796" height="10.72841" fill="none" stroke="#fff" stroke-miterlimit="10"/><rect x="32.72527" y="154.96076" width="8.61554" height="5.97928" fill="#fff"/><rect x="42.84586" y="154.96076" width="8.61554" height="5.97928" fill="#fff"/><line x1="32.70179" y1="153.92269" x2="35.02432" y2="153.92269" fill="none" stroke="#fff" stroke-miterlimit="10"/><line x1="32.70179" y1="161.95116" x2="35.02432" y2="161.95116" fill="none" stroke="#fff" stroke-miterlimit="10"/><line x1="36.84147" y1="153.92269" x2="39.164" y2="153.92269" fill="none" stroke="#fff" stroke-miterlimit="10"/><line x1="36.84147" y1="161.95116" x2="39.164" y2="161.95116" fill="none" stroke="#fff" stroke-miterlimit="10"/><line x1="40.79299" y1="153.92269" x2="43.11552" y2="153.92269" fill="none" stroke="#fff" stroke-miterlimit="10"/><line x1="40.79299" y1="161.95116" x2="43.11552" y2="161.95116" fill="none" stroke="#fff" stroke-miterlimit="10"/><line x1="44.93267" y1="153.92269" x2="47.2552" y2="153.92269" fill="none" stroke="#fff" stroke-miterlimit="10"/><line x1="44.93267" y1="161.95116" x2="47.2552" y2="161.95116" fill="none" stroke="#fff" stroke-miterlimit="10"/><line x1="48.97889" y1="153.92269" x2="51.30143" y2="153.92269" fill="none" stroke="#fff" stroke-miterlimit="10"/><line x1="48.97889" y1="161.95116" x2="51.30143" y2="161.95116" fill="none" stroke="#fff" stroke-miterlimit="10"/></g><g opacity="0.5"><rect x="91.62833" y="4.64107" width="12.00666" height="14.14118" rx="0.74506" fill="#a9ccff"/><rect x="93.10432" y="5.84871" width="8.96839" height="6.72521" rx="0.74506" fill="#7f9ddd"/></g><rect x="98.36203" y="10.49808" width="22.56528" height="26.57688" rx="1.40027" fill="#a9ccff"/><rect x="101.13601" y="12.7677" width="16.85516" height="12.63933" rx="1.40027" fill="#7f9ddd"/><path d="M52.38754,218.27244H75.41685c4.56165,0,7.54624,2.66234,6.66626,5.9465l-.20106.75037h28.83719c3.22788,0,5.65618,2.11774,5.04477,4.39958l-6.27483,23.41817H43.66071Z" fill="#002a4a"/><path d="M50.90115,205.85444h50.76639a2.90085,2.90085,0,0,1,2.90085,2.90085v31.4989a0,0,0,0,1,0,0H48.0003a0,0,0,0,1,0,0v-31.4989A2.90085,2.90085,0,0,1,50.90115,205.85444Z" fill="#fff"/><path d="M48.0003,208.75529s-.46089-2.90085,2.90085-2.90085h50.7664s2.90085.14474,2.90085,2.90085.3434,28.41823.3434,28.41823" fill="none" stroke="#002a4a" stroke-linecap="round" stroke-linejoin="round"/><path d="M80.41588,219.877c.84207,1.26311,9.26282,10.947,9.26282,10.947l8.84178-1.26311v-11.368l-7.32126-5.65734a2.78834,2.78834,0,0,0-3.67657.23472Z" fill="#ff68a8"/><path d="M60.20609,230.824l13.113-10.82048a2.78835,2.78835,0,0,1,3.8805.323L86.3104,230.824Z" fill="#ff68a8"/><circle cx="60.41661" cy="217.98232" r="5.26296" fill="#f9eb0f"/><path d="M34.62962,222.70475c-.64372-2.29111,1.789-4.43231,5.03578-4.43231H56.41361c4.56165,0,8.96742,2.66234,9.84055,5.9465l.19949.75037H97.26683c2.46508,0,4.58275,1.26047,5.04617,3.00356l6.59715,24.81419H43.08168Z" fill="#42aaed"/><path d="M39.6654,218.27244H56.41361c8.657,0,10.008,6.62669,10.008,6.62669H97.26683s4.11468.09155,5.04617,3.07374c0,0,6.22173,23.79511,6.43055,24.21276" fill="none" stroke="#002a4a" stroke-linecap="round" stroke-linejoin="round"/><polygon points="73.251 232.199 94.508 232.199 96.501 239.839 76.573 240.171 73.251 232.199" fill="#002a4a"/><rect x="405.24432" y="192.76052" width="40.39629" height="25.10061" rx="3.90695" fill="#002a4a"/><rect x="403.09116" y="191.22255" width="40.39629" height="25.10061" rx="3.90695" fill="#f9eb0f"/><rect x="417.18588" y="196.97766" width="4.87586" height="14.07102" fill="#ff68a8"/><rect x="425.20599" y="196.97766" width="4.87586" height="14.07102" fill="#ff68a8"/><polyline points="417.186 211.049 422.062 211.049 422.062 196.978" fill="none" stroke="#002a4a" stroke-linecap="round" stroke-linejoin="round"/><polyline points="425.206 211.049 430.082 211.049 430.082 196.978" fill="none" stroke="#002a4a" stroke-linecap="round" stroke-linejoin="round"/><polyline points="425.149 208.019 425.206 196.978 428.143 196.978" fill="none" stroke="#002a4a" stroke-linecap="round" stroke-linejoin="round"/><polyline points="417.197 208.245 417.253 196.978 420.191 196.978" fill="none" stroke="#002a4a" stroke-linecap="round" stroke-linejoin="round"/><path d="M403.09116,212.41621V195.1295a3.74744,3.74744,0,0,1,3.90694-3.90695h32.5824" fill="none" stroke="#002a4a" stroke-linecap="round" stroke-linejoin="round"/><path d="M31.76552,69.36565H61.26338l4.7126,4.58184V57.58958a3.14343,3.14343,0,0,0-3.14342-3.14343h-31.067a3.14343,3.14343,0,0,0-3.14343,3.14343v8.63264A3.14343,3.14343,0,0,0,31.76552,69.36565Z" fill="#7f9ddd"/><line x1="61.48393" y1="58.73883" x2="32.71024" y2="58.73883" fill="none" stroke="#a9ccff" stroke-miterlimit="10"/><line x1="61.48393" y1="62.04707" x2="32.71024" y2="62.04707" fill="none" stroke="#a9ccff" stroke-miterlimit="10"/><line x1="61.70447" y1="65.35531" x2="32.93079" y2="65.35531" fill="none" stroke="#a9ccff" stroke-miterlimit="10"/><path d="M370.5207,62.31187H327.61429l-6.85477,6.66455V45.18285a4.5723,4.5723,0,0,1,4.57231-4.5723H370.5207a4.5723,4.5723,0,0,1,4.57231,4.5723V57.73956A4.57231,4.57231,0,0,1,370.5207,62.31187Z" fill="#7f9ddd"/><line x1="327.29349" y1="46.85452" x2="369.14655" y2="46.85452" fill="none" stroke="#a9ccff" stroke-miterlimit="10"/><line x1="327.29349" y1="51.66655" x2="369.14655" y2="51.66655" fill="none" stroke="#a9ccff" stroke-miterlimit="10"/><line x1="326.97269" y1="56.47858" x2="368.82574" y2="56.47858" fill="none" stroke="#a9ccff" stroke-miterlimit="10"/><path d="M314.81681,90.99818H427.99741a0,0,0,0,1,0,0V153.612a5.70521,5.70521,0,0,1-5.70521,5.70521H320.522a5.70521,5.70521,0,0,1-5.70521-5.70521V90.99818A0,0,0,0,1,314.81681,90.99818Z" fill="#002a4a"/><path d="M311.36023,87.90267H424.54082a0,0,0,0,1,0,0v62.61382a5.70521,5.70521,0,0,1-5.70521,5.70521H317.06543a5.70521,5.70521,0,0,1-5.70521-5.70521V87.90267A0,0,0,0,1,311.36023,87.90267Z" fill="#ff68a8"/><rect x="311.36023" y="87.90267" width="113.18059" height="5.79129" fill="#ffaed0"/><path d="M317.06543,156.22169c-5.02669,0-5.7052-5.7052-5.7052-5.7052V87.90267h12.62083" fill="none" stroke="#002a4a" stroke-linecap="round" stroke-linejoin="round"/><rect x="321.39531" y="102.81029" width="44.9245" height="42.41124" fill="#ffaed0"/><line x1="373.54543" y1="103.75277" x2="412.91505" y2="103.75277" fill="none" stroke="#ffaed0" stroke-linecap="round" stroke-linejoin="round"/><line x1="373.54543" y1="108.765" x2="412.91505" y2="108.765" fill="none" stroke="#ffaed0" stroke-linecap="round" stroke-linejoin="round"/><line x1="373.54543" y1="113.5648" x2="412.91505" y2="113.5648" fill="none" stroke="#ffaed0" stroke-linecap="round" stroke-linejoin="round"/><line x1="373.54543" y1="118.57703" x2="412.91505" y2="118.57703" fill="none" stroke="#ffaed0" stroke-linecap="round" stroke-linejoin="round"/><line x1="373.54543" y1="123.61608" x2="412.91505" y2="123.61608" fill="none" stroke="#ffaed0" stroke-linecap="round" stroke-linejoin="round"/><line x1="373.54543" y1="128.62831" x2="412.91505" y2="128.62831" fill="none" stroke="#ffaed0" stroke-linecap="round" stroke-linejoin="round"/><line x1="373.54543" y1="133.42811" x2="412.91505" y2="133.42811" fill="none" stroke="#ffaed0" stroke-linecap="round" stroke-linejoin="round"/><line x1="373.54543" y1="138.44035" x2="412.91505" y2="138.44035" fill="none" stroke="#ffaed0" stroke-linecap="round" stroke-linejoin="round"/><line x1="373.54543" y1="143.82714" x2="412.91505" y2="143.82714" fill="none" stroke="#ffaed0" stroke-linecap="round" stroke-linejoin="round"/><path d="M355.0344,124.09234a11.27685,11.27685,0,1,1-11.27685-11.27685" fill="none" stroke="#ff68a8" stroke-linecap="round" stroke-linejoin="round" stroke-width="4"/><polygon points="348.124 124.857 361.517 124.857 354.82 114.616 348.124 124.857" fill="#ff68a8"/><rect x="68.3524" y="135.77467" width="61.04104" height="41.84262" rx="7.6777" fill="#002a4a"/><rect x="65.95092" y="132.75061" width="61.04104" height="41.84262" rx="7.6777" fill="#ff68a8"/><rect x="65.95092" y="133.37318" width="61.04104" height="41.84262" rx="7.6777" fill="#ff68a8"/><polygon points="109.41 153.672 99.621 158.413 89.832 163.154 89.832 153.672 89.832 144.19 99.621 148.931 109.41 153.672" fill="#f9eb0f"/><polyline points="109.41 153.672 89.832 163.154 89.832 151.388" fill="none" stroke="#002a4a" stroke-linecap="round" stroke-linejoin="round"/><path d="M65.95092,167.5381V141.05088s.11354-8.30027,7.6777-8.30027h45.68564" fill="none" stroke="#002a4a" stroke-linecap="round" stroke-linejoin="round"/><polyline points="89.784 146.566 89.832 144.19 105.382 151.349" fill="none" stroke="#002a4a" stroke-linecap="round" stroke-linejoin="round"/><path d="M163.3788,22.9244h9.7237A3.65992,3.65992,0,0,1,176.59,26.73524v.48088H189.5699a1.914,1.914,0,0,1,1.82384,1.993V43.05031a1.914,1.914,0,0,1-1.82384,1.993H165.403a1.91185,1.91185,0,0,1-1.82373-1.97129Z" fill="#a9ccff" stroke="#002a4a" stroke-miterlimit="10"/><path d="M155.919,25.97928h11.46049a4.11037,4.11037,0,0,1,4.11037,4.11037v.51867h15.29835a2.1496,2.1496,0,0,1,2.1496,2.14961V47.68707a2.1496,2.1496,0,0,1-2.1496,2.1496H158.30473a2.1496,2.1496,0,0,1-2.14948-2.12623Z" fill="#f9a80f"/><path d="M174.25929,33.105v5.68162h11.67889v-5.366S174.73276,33.57842,174.25929,33.105Z" fill="#fbc35a"/><path d="M155.919,25.97928V47.71044a2.2583,2.2583,0,0,0,2.38576,2.12623h28.48345" fill="none" stroke="#002a4a" stroke-miterlimit="10"/><path d="M188.93778,43.45579V32.75793a2.02118,2.02118,0,0,0-2.1496-2.14961H171.48983s-.03357-4.36971-4.36971-4.36971" fill="none" stroke="#002a4a" stroke-miterlimit="10"/><rect x="252.44081" y="2.45785" width="35.17737" height="35.17737" rx="3.86923" fill="#002a4a"/><rect x="250.08424" y="0.69042" width="35.17737" height="35.17737" rx="3.86923" fill="#42aaed"/><path d="M274.68963,9.99261a.71734.71734,0,0,0-.9031-.69285l-.10168.02781a.86926.86926,0,0,0-.28111.077l-9.42463,2.58a.71725.71725,0,0,0-.53162.69286v.13741a.85291.85291,0,0,0-.04519.22374v9.0767a2.7573,2.7573,0,1,0,1.73861,2.8519.83379.83379,0,0,0,.02874-.14222V15.75164l7.73722-2.11244v5.62762a2.75728,2.75728,0,1,0,1.73855,2.85206.83367.83367,0,0,0,.02874-.14233V13.1567l.01547-.00421Z" fill="#f9eb0f"/><path d="M250.08424,31.99856V4.55965S250.098.69042,253.95347.69042h27.43891" fill="none" stroke="#002a4a" stroke-linecap="round" stroke-linejoin="round"/><path d="M271.91608,24.592a2.58225,2.58225,0,0,0,2.68678-2.68678V9.99261" fill="none" stroke="#002a4a" stroke-linecap="round" stroke-linejoin="round"/><path d="M272.90687,13.6392l-7.73722,2.11244V24.8249c0,2.33677-2.75808,2.61558-2.75808,2.61558" fill="none" stroke="#002a4a" stroke-linecap="round" stroke-linejoin="round"/><polygon points="42.15 273.463 50.392 265.374 51.601 276.614 47.576 272.978 42.15 273.463" fill="#a9ccff"/><line x1="2.54367" y1="72.24247" x2="11.24374" y2="72.24247" fill="none" stroke="#fff" stroke-miterlimit="10"/><line x1="221.49532" y1="36.7172" x2="230.19538" y2="36.7172" fill="none" stroke="#fff" stroke-miterlimit="10"/><line x1="439.72195" y1="243.34375" x2="448.42202" y2="243.34375" fill="none" stroke="#fff" stroke-miterlimit="10"/><line x1="15.56294" y1="196.6259" x2="25.71302" y2="196.6259" fill="none" stroke="#fff" stroke-miterlimit="10"/><line x1="452.15486" y1="104.98367" x2="460.70813" y2="104.98367" fill="none" stroke="#fff" stroke-miterlimit="10"/><line x1="391.06004" y1="173.40987" x2="400.83521" y2="173.40987" fill="none" stroke="#fff" stroke-miterlimit="10"/></g></svg>