<?xml version="1.0" encoding="UTF-8"?>
<svg version="1.1" xmlns="http://www.w3.org/2000/svg" width="2048" height="2048">
<path d="M0 0 C1.49023433 0.00656394 1.49023433 0.00656394 3.0105744 0.01326048 C16.77139974 0.21014965 30.45272522 1.67912561 44.13645566 3.03802133 C48.24022955 3.44303923 52.34524985 3.83505762 56.45011902 4.22879028 C63.55911417 4.91241205 70.66729715 5.60399708 77.77497673 6.30115891 C88.16422039 7.32016549 98.55465984 8.32653835 108.94540036 9.33015235 C125.96040584 10.97391594 142.97444958 12.62742271 159.98789978 14.28720093 C176.24068964 15.87274876 192.4938707 17.45417313 208.74766541 19.02938843 C209.73809673 19.12537711 210.72852806 19.2213658 211.74897246 19.32026324 C217.72466637 19.89936791 223.70037604 20.47830979 229.67608926 21.05721515 C238.5462998 21.91656573 247.41647902 22.77623934 256.28663635 23.63613892 C257.25347491 23.7298646 258.22031347 23.82359029 259.21645017 23.92015615 C273.67832111 25.32223387 288.13978905 26.72841777 302.60102844 28.13699341 C310.03702067 28.86118091 317.47302381 29.58525635 324.90904236 30.30917358 C325.80932631 30.39682242 326.70961025 30.48447125 327.63717553 30.57477611 C350.48509347 32.79891018 373.33457664 35.00487104 396.18836153 37.16792846 C400.01359964 37.53011334 403.83876192 37.89308842 407.66389942 38.2563343 C410.07740399 38.48544452 412.49091045 38.71453473 414.90441895 38.94360352 C416.05729049 39.05302721 417.21016203 39.16245091 418.39796907 39.27519047 C424.90127176 39.89170855 431.40511095 40.50208275 437.90948629 41.10717392 C441.76452295 41.46708604 445.61902904 41.83244878 449.47341418 42.19926596 C451.18652129 42.36107348 452.89985224 42.52053561 454.61343884 42.67718363 C485.98615618 45.54717038 511.36260382 54.03740311 532.71421814 78.21640015 C544.1251456 92.58142558 549.2265198 110.4599822 555.10523987 127.55947876 C556.24676286 130.87367876 557.39783288 134.18455955 558.54820251 137.49569702 C560.22656796 142.32872329 561.90246342 147.16259107 563.57504654 151.99762154 C567.80067603 164.21163601 572.07373493 176.40888674 576.34941101 188.60546875 C578.53433 194.83962097 580.71589021 201.07494839 582.89781189 207.31015015 C583.77279603 209.8101557 584.64779603 212.3101557 585.52281189 214.81015015 C628.83531189 338.56015015 672.14781189 462.31015015 779.77281189 769.81015015 C780.20589157 771.04751923 780.63897125 772.28488831 781.08517456 773.55975342 C781.96063595 776.06107458 782.83609371 778.56239701 783.71154785 781.0637207 C785.89195895 787.29351735 788.072432 793.52329229 790.2530365 799.75302124 C794.50848118 811.91053821 798.76306721 824.06835392 803.01561928 836.22688293 C805.08023901 842.12973586 807.14517046 848.03247973 809.21031189 853.93515015 C809.54207239 854.88340416 809.54207239 854.88340416 809.88053513 855.85081482 C816.93588174 876.01588533 824.01442159 896.17254627 831.14781189 916.31015015 C831.71177673 916.3352063 832.27574158 916.36026245 832.85679626 916.38607788 C835.45396071 916.50333316 838.05087499 916.62546281 840.64781189 916.74765015 C841.97812439 916.80662476 841.97812439 916.80662476 843.33531189 916.86679077 C848.65396316 917.12099102 853.87343749 917.57691352 859.14781189 918.31015015 C862.37525587 911.4420213 864.94438942 904.43567673 867.38609314 897.25546265 C867.7835675 896.09771835 868.18104187 894.93997406 868.59056091 893.74714661 C869.6618205 890.62519121 870.7296452 887.50208652 871.79613113 884.37849808 C872.91686365 881.0993106 874.04247201 877.82179904 875.16807556 874.54428101 C875.3932124 873.8886917 875.61834925 873.2331024 875.85030842 872.55764675 C876.30531661 871.23270855 876.76034164 869.90777613 877.21538353 868.5828495 C877.89829504 866.59389924 878.58070498 864.6047775 879.26300049 862.61561584 C883.12622197 851.35539502 887.03163579 840.11019142 890.96031189 828.87265015 C891.5663654 827.1379549 892.17240383 825.40325439 892.77842712 823.66854858 C893.97253566 820.25122861 895.16716782 816.83409224 896.36216736 813.41708374 C899.10810517 805.56479718 901.84976161 797.71101641 904.59046936 789.85690308 C905.21153119 788.07716686 905.83268583 786.29746303 906.45393372 784.51779175 C910.07300811 774.14960071 913.68153044 763.77784681 917.27281189 753.3999939 C918.68931893 749.30749071 920.10596128 745.2150344 921.52281189 741.12265015 C922.05628738 739.58168167 922.05628738 739.58168167 922.60054016 738.00958252 C927.77713665 723.06424043 933.03209248 708.14846971 938.33531189 693.24765015 C945.13275405 674.14627421 951.75958977 654.98865838 958.33531189 635.81015015 C958.5722451 635.11911949 958.80917831 634.42808884 959.05329132 633.71611786 C959.53014574 632.32530052 960.00699373 630.93448098 960.48383522 629.54365921 C961.65027982 626.14153774 962.81691057 622.73948017 963.98374939 619.3374939 C964.32339533 618.34718422 964.32339533 618.34718422 964.6699028 617.33686829 C968.55870029 606.00088538 972.48851698 594.67981098 976.46031189 583.37265015 C976.73032013 582.60396606 977.00032837 581.83528198 977.27851868 581.04330444 C977.54758026 580.27735962 977.81664185 579.51141479 978.09385681 578.72225952 C978.63923109 577.16954113 979.18455971 575.6168067 979.72984314 574.0640564 C980.00025925 573.29405304 980.27067535 572.52404968 980.54928589 571.73071289 C984.27859599 561.10090182 987.95983181 550.45435194 991.64781189 539.81015015 C997.06928224 524.16483476 1002.51320895 508.52774823 1007.99205017 492.9024353 C1012.90726812 478.882024 1017.78307263 464.8481494 1022.64781189 450.81015015 C1028.06952301 435.16491766 1033.51320862 419.52774917 1038.99205017 403.9024353 C1043.90726812 389.882024 1048.78307263 375.8481494 1053.64781189 361.81015015 C1059.0704608 346.16221152 1064.51415075 330.52200102 1069.99507141 314.89437866 C1073.41446294 305.14340298 1076.81878207 295.38742315 1080.19859314 285.62265015 C1080.71879784 284.11981728 1080.71879784 284.11981728 1081.24951172 282.58662415 C1081.9602816 280.53311517 1082.67104099 278.47960257 1083.38179016 276.42608643 C1083.91565842 274.88369797 1083.91565842 274.88369797 1084.46031189 273.31015015 C1084.99671799 271.76038986 1084.99671799 271.76038986 1085.54396057 270.17932129 C1091.07542765 254.20582277 1096.70037306 238.26746548 1102.36955261 222.34240723 C1108.33197975 205.57872154 1114.13681959 188.76312475 1119.90208435 171.93093872 C1133.74502713 131.5189517 1133.74502713 131.5189517 1139.22413635 116.05822754 C1139.78510346 114.47169987 1140.34255543 112.88392354 1140.89595032 111.29473877 C1149.76635468 85.85822012 1164.59782454 65.48546313 1189.13609314 53.32479858 C1191.21156604 52.33298832 1193.29830273 51.37494922 1195.39781189 50.43515015 C1196.03493103 50.14865601 1196.67205017 49.86216187 1197.32847595 49.56698608 C1205.78494697 45.95024526 1214.52948712 44.91453938 1223.62254333 44.05780029 C1224.75180567 43.94688848 1225.88106801 43.83597667 1227.04455042 43.72170389 C1230.82392001 43.35186606 1234.6040075 42.9899715 1238.38414001 42.62802124 C1241.1116298 42.36335942 1243.8389531 42.09699915 1246.56628418 41.83070755 C1252.47512626 41.25466968 1258.38435144 40.68270651 1264.29385376 40.11348343 C1273.0225211 39.27269108 1281.75058496 38.42576178 1290.47851807 37.57738541 C1304.08885948 36.25452677 1317.69956315 34.93544199 1331.31050628 33.61879016 C1352.2496288 31.59313743 1373.18741211 29.55390897 1394.12482285 27.51064807 C1425.74536199 24.42498254 1457.36711571 21.35205351 1488.99016172 18.29218425 C1493.40860409 17.86465044 1497.82703845 17.43703378 1502.24546814 17.0093689 C1503.1218948 16.9245423 1503.99832146 16.83971569 1504.90130651 16.75231859 C1519.42018362 15.34685278 1533.9382268 13.93293207 1548.45601672 12.51628537 C1563.69356144 11.02957899 1578.93190266 9.55125718 1594.17102289 8.08078706 C1603.41471503 7.18858719 1612.65776323 6.2902494 1621.90001446 5.38324259 C1628.15739865 4.76979872 1634.41554756 4.16460346 1640.67434019 3.56570186 C1644.25537563 3.22280271 1647.83599494 2.8765786 1651.41573334 2.52037239 C1664.25060214 1.24564621 1677.04873344 0.08159587 1689.9540863 -0.0413208 C1691.31479697 -0.0642503 1691.31479697 -0.0642503 1692.70299673 -0.08764303 C1701.78393807 -0.04342691 1709.10530591 2.42637337 1716.13218689 8.2124939 C1722.55416845 14.89583517 1724.51135908 23.37677345 1724.35385132 32.38757324 C1723.69346886 41.75480231 1720.06085874 50.86890547 1716.89390564 59.63046265 C1716.48111359 60.78674667 1716.06832153 61.9430307 1715.64302063 63.13435364 C1714.52775188 66.25469842 1713.40746943 69.37314909 1712.28471756 72.49080276 C1711.09852515 75.78841701 1709.91889395 79.0883778 1708.73838806 82.38803101 C1706.10610231 89.74148382 1703.4639614 97.0913737 1700.82012939 104.44068146 C1699.77579132 107.34460306 1698.73280731 110.2490106 1697.68980408 113.15341187 C1693.61676434 124.49420194 1689.53474993 135.83173151 1685.44558716 147.16671753 C1681.71783828 157.50010902 1677.99728455 167.83608622 1674.27720642 178.17224121 C1672.39448339 183.40319749 1670.51138108 188.63401722 1668.62828064 193.86483765 C1668.25601349 194.89893265 1667.88374634 195.93302765 1667.50019836 196.99845886 C1665.30086384 203.10771149 1663.10116043 209.21683114 1660.90113831 215.32583618 C1651.64427987 241.0302725 1642.39844297 266.73865093 1633.16041565 292.44985962 C1626.82872262 310.07206224 1620.49248058 327.692614 1614.14781189 345.31015015 C1607.41143447 364.01589386 1600.68368202 382.72472827 1593.96031189 401.43515015 C1593.71958073 402.1050724 1593.47884956 402.77499466 1593.23082352 403.46521759 C1589.53624005 413.74677329 1585.84199158 424.02844936 1582.14781189 434.31015015 C1578.21049661 445.26854986 1574.27306763 456.2269087 1570.33531189 467.18515015 C1570.09417789 467.85620033 1569.8530439 468.52725052 1569.60460281 469.21863556 C1562.76709053 488.24656226 1555.92357599 507.27231781 1549.07270813 526.29544067 C1542.58973941 544.29747018 1536.11758768 562.30337641 1529.64781189 580.31015015 C1522.46323482 600.30636915 1515.27354332 620.30072944 1508.07408142 640.29159546 C1501.59065833 658.29490792 1495.11804789 676.30209556 1488.64781189 694.31015015 C1481.82040534 713.312287 1474.98929848 732.31307668 1468.14781189 751.31015015 C1461.41143447 770.01589386 1454.68368202 788.72472827 1447.96031189 807.43515015 C1447.71958073 808.1050724 1447.47884956 808.77499466 1447.23082352 809.46521759 C1443.53624005 819.74677329 1439.84199158 830.02844936 1436.14781189 840.31015015 C1432.21049661 851.26854986 1428.27306763 862.2269087 1424.33531189 873.18515015 C1424.09417789 873.85620033 1423.8530439 874.52725052 1423.60460281 875.21863556 C1416.76709053 894.24656226 1409.92357599 913.27231781 1403.07270813 932.29544067 C1396.58973941 950.29747018 1390.11758768 968.30337641 1383.64781189 986.31015015 C1376.46323482 1006.30636915 1369.27354332 1026.30072944 1362.07408142 1046.29159546 C1355.59065833 1064.29490792 1349.11804789 1082.30209556 1342.64781189 1100.31015015 C1335.82040534 1119.312287 1328.98929848 1138.31307668 1322.14781189 1157.31015015 C1315.41143447 1176.01589386 1308.68368202 1194.72472827 1301.96031189 1213.43515015 C1301.71958073 1214.1050724 1301.47884956 1214.77499466 1301.23082352 1215.46521759 C1297.53624005 1225.74677329 1293.84199158 1236.02844936 1290.14781189 1246.31015015 C1286.21049661 1257.26854986 1282.27306763 1268.2269087 1278.33531189 1279.18515015 C1278.09417789 1279.85620033 1277.8530439 1280.52725052 1277.60460281 1281.21863556 C1270.76709053 1300.24656226 1263.92357599 1319.27231781 1257.07270813 1338.29544067 C1250.58973941 1356.29747018 1244.11758768 1374.30337641 1237.64781189 1392.31015015 C1230.46323482 1412.30636915 1223.27354332 1432.30072944 1216.07408142 1452.29159546 C1210.08763106 1468.91490307 1204.11012124 1485.54141327 1198.13575745 1502.16906738 C1196.65123348 1506.30070149 1195.16652127 1510.43226793 1193.68174744 1514.56381226 C1193.43874373 1515.23999698 1193.19574003 1515.9161817 1192.94537258 1516.61285686 C1191.73168036 1519.99006619 1190.51796386 1523.36726679 1189.30422974 1526.74446106 C1188.82940065 1528.06567347 1188.35457256 1529.38688623 1187.87974548 1530.70809937 C1187.64829362 1531.35211606 1187.41684175 1531.99613276 1187.1783762 1532.65966511 C1185.68303615 1536.82056296 1184.18804515 1540.98158609 1182.69322205 1545.14266968 C1181.17736218 1549.36228576 1179.66062666 1553.58158541 1178.14317322 1557.80062866 C1176.7014173 1561.80923653 1175.26279798 1565.81895009 1173.82627869 1569.82943726 C1170.04321479 1580.37453171 1166.19659782 1590.893216 1162.27227211 1601.38656807 C1160.85249508 1605.18915619 1159.44251735 1608.99539175 1158.03257275 1612.80163479 C1156.89504469 1615.86908927 1155.74803888 1618.93249703 1154.58815002 1621.99157715 C1153.30582473 1625.37422692 1152.04693543 1628.76479154 1150.79234314 1632.1578064 C1150.40691345 1633.15550049 1150.02148376 1634.15319458 1149.62437439 1635.18112183 C1146.33809101 1644.19467413 1147.51003069 1650.6940137 1150.02281189 1659.81015015 C1150.35023376 1661.01671265 1150.67765564 1662.22327515 1151.01499939 1663.46640015 C1151.56422747 1665.44560274 1152.1529091 1667.32251128 1152.93638611 1669.22250366 C1155.65351155 1676.04279563 1155.6038634 1682.86938602 1155.53892517 1690.11166382 C1155.52286712 1692.24032936 1155.53882466 1694.36708966 1155.55796814 1696.49569702 C1155.57406009 1706.90704008 1154.00557637 1715.10222178 1149.10874939 1724.2515564 C1148.03669518 1726.54819286 1147.41465501 1728.79731964 1146.77281189 1731.24765015 C1145.20519203 1736.72174518 1142.66103152 1740.86007194 1139.14781189 1745.31015015 C1138.6180072 1745.98948608 1138.08820251 1746.66882202 1137.54234314 1747.3687439 C1127.95046842 1758.2310656 1112.96916456 1762.78340722 1099.14781189 1765.31015015 C1097.93222595 1765.53444702 1096.71664001 1765.7587439 1095.46421814 1765.98983765 C1069.40996207 1769.94813253 1036.26577554 1769.61131768 1014.02671814 1753.80233765 C1008.04420076 1748.88766746 1003.44776714 1742.69865509 999.14781189 1736.31015015 C999.14781189 1735.65015015 999.14781189 1734.99015015 999.14781189 1734.31015015 C998.34981894 1734.31204875 997.551826 1734.31394735 996.72965145 1734.31590348 C949.39832963 1734.42787668 902.06702226 1734.51362475 854.73559445 1734.56547679 C849.04813025 1734.57173007 843.36066632 1734.57820171 837.67320251 1734.58480835 C836.54096587 1734.5861199 835.40872922 1734.58743145 834.24218237 1734.58878275 C815.92681364 1734.61051909 797.61152366 1734.64993086 779.29620159 1734.69591413 C760.49272289 1734.74272806 741.68928535 1734.77045598 722.88575077 1734.78059262 C711.28980608 1734.78744153 699.69408398 1734.80904652 688.09820783 1734.84973248 C680.13855176 1734.87623179 672.1790102 1734.88413489 664.21931326 1734.87765703 C659.63197497 1734.87446532 655.04502473 1734.87923968 650.45775604 1734.90617752 C646.24761896 1734.93071858 642.03812657 1734.93160453 637.82795823 1734.91464462 C636.31488445 1734.91255219 634.80176849 1734.9187174 633.28877628 1734.93456606 C610.1083362 1735.16301655 590.48513683 1725.30412096 573.83531189 1709.43515015 C564.29071258 1699.56882277 558.73763009 1687.48269729 554.23374939 1674.69296265 C553.8670816 1673.66510147 553.50041382 1672.6372403 553.12263489 1671.57823181 C551.91813277 1668.19880889 550.72057608 1664.81696637 549.52281189 1661.43515015 C548.670203 1659.04016776 547.81700318 1656.64539568 546.96324158 1654.25082397 C545.20697852 1649.32442722 543.45268424 1644.39733611 541.6995697 1639.46981812 C538.31620657 1629.96800259 534.89850346 1620.47863393 531.47697449 1610.99050903 C529.63145759 1605.8723075 527.7881002 1600.75332838 525.94468689 1595.6343689 C525.56526947 1594.58086243 525.18585205 1593.52735596 524.79493713 1592.44192505 C519.98691472 1579.08961936 515.1892355 1565.73359557 510.39071655 1552.37787247 C503.31584851 1532.68643252 496.2375176 1512.99625431 489.14781189 1493.31015015 C482.0575161 1473.62240749 474.97875852 1453.93053254 467.90312195 1434.23751831 C461.32391663 1415.92626933 454.74061897 1397.61650761 448.14781189 1379.31015015 C441.0575161 1359.62240749 433.97875852 1339.93053254 426.90312195 1320.23751831 C420.32391663 1301.92626933 413.74061897 1283.61650761 407.14781189 1265.31015015 C400.0575161 1245.62240749 392.97875852 1225.93053254 385.90312195 1206.23751831 C379.32391662 1187.92626928 372.74055648 1169.61653014 366.14781189 1151.31015015 C359.41143447 1132.60440644 352.68368202 1113.89557203 345.96031189 1095.18515015 C345.71958073 1094.51522789 345.47884956 1093.84530563 345.23082352 1093.1550827 C341.2879575 1082.18258826 337.34548075 1071.20995396 333.40304565 1060.23730469 C329.71398175 1049.96985491 326.02478444 1039.70245309 322.33531189 1029.43515015 C322.09417789 1028.76409996 321.8530439 1028.09304977 321.60460281 1027.40166473 C314.76709053 1008.37373804 307.92357599 989.34798249 301.07270813 970.32485962 C294.3410032 951.63213474 287.62112774 932.93516939 280.90312195 914.23751831 C274.32391663 895.92626933 267.74061897 877.61650761 261.14781189 859.31015015 C254.0575161 839.62240749 246.97875852 819.93053254 239.90312195 800.23751831 C233.32391662 781.92626928 226.74055648 763.61653014 220.14781189 745.31015015 C213.41143447 726.60440644 206.68368202 707.89557203 199.96031189 689.18515015 C199.71958073 688.51522789 199.47884956 687.84530563 199.23082352 687.1550827 C195.2879575 676.18258826 191.34548075 665.20995396 187.40304565 654.23730469 C183.71398175 643.96985491 180.02478444 633.70245309 176.33531189 623.43515015 C175.9736109 622.42857487 175.9736109 622.42857487 175.60460281 621.40166473 C168.76709053 602.37373804 161.92357599 583.34798249 155.07270813 564.32485962 C148.3410032 545.63213474 141.62112774 526.93516939 134.90312195 508.23751831 C128.32391663 489.92626933 121.74061897 471.61650761 115.14781189 453.31015015 C108.0575161 433.62240749 100.97875852 413.93053254 93.90312195 394.23751831 C87.32391663 375.92626933 80.74061897 357.61650761 74.14781189 339.31015015 C67.0575161 319.62240749 59.97875852 299.93053254 52.90312195 280.23751831 C46.32391662 261.92626928 39.74055648 243.61653014 33.14781189 225.31015015 C25.44037222 203.90793612 17.74459626 182.50153981 10.05308533 161.09359741 C9.32083366 159.05551808 8.58858134 157.01743898 7.85632706 154.97936058 C7.36515011 153.6122674 6.87397733 152.24517272 6.38280869 150.87807655 C2.83406488 141.00081497 -0.71685636 131.12433841 -4.26918983 121.24836731 C-5.80564058 116.97660504 -7.34173973 112.70471632 -8.87783718 108.432827 C-10.08764034 105.0684661 -11.2976642 101.70418499 -12.50828552 98.34011841 C-15.17031462 90.94250096 -17.82704166 83.54300885 -20.47792053 76.14138794 C-21.43941833 73.45858981 -22.40424828 70.77701381 -23.37098694 68.09609985 C-24.65838512 64.52593277 -25.94080147 60.95401012 -27.22006989 57.38092232 C-27.70875993 56.01872943 -28.19920254 54.65716383 -28.69152069 53.296278 C-29.37449248 51.40750892 -30.05049094 49.51622277 -30.72621155 47.62484741 C-31.30698456 46.00969994 -31.30698456 46.00969994 -31.89949036 44.36192322 C-34.93450254 34.6398803 -34.92716061 24.70565279 -30.85218811 15.31015015 C-26.86733042 8.22182074 -21.47997431 3.90767885 -13.82903385 1.26654625 C-9.23035832 -0.0077883 -4.74727637 -0.02936236 0 0 Z " fill="#5C87BE" transform="translate(178.85218811035156,156.68984985351563)"/>
<path d="M0 0 C1.36071066 -0.0229295 1.36071066 -0.0229295 2.74891043 -0.04632223 C11.82985177 -0.00210611 19.1512196 2.46769417 26.17810059 8.2538147 C32.60008215 14.93715597 34.55727278 23.41809425 34.39976501 32.42889404 C33.73938255 41.79612311 30.10677244 50.91022627 26.93981934 59.67178345 C26.52702728 60.82806747 26.11423523 61.9843515 25.68893433 63.17567444 C24.57366557 66.29601922 23.45338313 69.41446989 22.33063126 72.53212357 C21.14443885 75.82973781 19.96480764 79.1296986 18.78430176 82.42935181 C16.152016 89.78280462 13.5098751 97.1326945 10.86604309 104.48200226 C9.82170502 107.38592386 8.77872101 110.29033141 7.73571777 113.19473267 C3.66267804 124.53552274 -0.41933638 135.87305231 -4.50849915 147.20803833 C-8.23624802 157.54142982 -11.95680175 167.87740702 -15.67687988 178.21356201 C-17.55960291 183.44451829 -19.44270522 188.67533802 -21.32580566 193.90615845 C-21.88420639 195.45730095 -21.88420639 195.45730095 -22.45388794 197.03977966 C-24.65322247 203.14903229 -26.85292587 209.25815194 -29.052948 215.36715698 C-38.30980643 241.0715933 -47.55564333 266.77997173 -56.79367065 292.49118042 C-63.12536369 310.11338304 -69.46160572 327.7339348 -75.80627441 345.35147095 C-82.54265183 364.05721466 -89.27040428 382.76604907 -95.99377441 401.47647095 C-96.23450558 402.1463932 -96.47523674 402.81631546 -96.72326279 403.50653839 C-100.41784625 413.7880941 -104.11209473 424.06977016 -107.80627441 434.35147095 C-111.74358969 445.30987066 -115.68101868 456.2682295 -119.61877441 467.22647095 C-119.85990841 467.89752113 -120.1010424 468.56857132 -120.34948349 469.25995636 C-127.18699577 488.28788306 -134.03051032 507.31363861 -140.88137817 526.33676147 C-147.3643469 544.33879098 -153.83649862 562.34469721 -160.30627441 580.35147095 C-167.49085148 600.34768995 -174.68054298 620.34205024 -181.88000488 640.33291626 C-188.36342797 658.33622872 -194.83603842 676.34341636 -201.30627441 694.35147095 C-208.13368097 713.3536078 -214.96478782 732.35439748 -221.80627441 751.35147095 C-228.54265183 770.05721466 -235.27040428 788.76604907 -241.99377441 807.47647095 C-242.23450558 808.1463932 -242.47523674 808.81631546 -242.72326279 809.50653839 C-246.41784625 819.7880941 -250.11209473 830.06977016 -253.80627441 840.35147095 C-257.74358969 851.30987066 -261.68101868 862.2682295 -265.61877441 873.22647095 C-265.85990841 873.89752113 -266.1010424 874.56857132 -266.34948349 875.25995636 C-273.18699577 894.28788306 -280.03051032 913.31363861 -286.88137817 932.33676147 C-293.3643469 950.33879098 -299.83649862 968.34469721 -306.30627441 986.35147095 C-313.49085148 1006.34768995 -320.68054298 1026.34205024 -327.88000488 1046.33291626 C-334.36342797 1064.33622872 -340.83603842 1082.34341636 -347.30627441 1100.35147095 C-354.13368097 1119.3536078 -360.96478782 1138.35439748 -367.80627441 1157.35147095 C-374.54265183 1176.05721466 -381.27040428 1194.76604907 -387.99377441 1213.47647095 C-388.23450558 1214.1463932 -388.47523674 1214.81631546 -388.72326279 1215.50653839 C-392.41784625 1225.7880941 -396.11209473 1236.06977016 -399.80627441 1246.35147095 C-403.74358969 1257.30987066 -407.68101868 1268.2682295 -411.61877441 1279.22647095 C-411.85990841 1279.89752113 -412.1010424 1280.56857132 -412.34948349 1281.25995636 C-419.18699577 1300.28788306 -426.03051032 1319.31363861 -432.88137817 1338.33676147 C-439.3643469 1356.33879098 -445.83649862 1374.34469721 -452.30627441 1392.35147095 C-459.49085148 1412.34768995 -466.68054298 1432.34205024 -473.88000488 1452.33291626 C-479.86645524 1468.95622387 -485.84396507 1485.58273407 -491.81832886 1502.21038818 C-493.30285283 1506.34202229 -494.78756504 1510.47358874 -496.27233887 1514.60513306 C-496.51534257 1515.28131778 -496.75834627 1515.9575025 -497.00871372 1516.65417767 C-498.22240594 1520.03138699 -499.43612245 1523.40858759 -500.64985657 1526.78578186 C-501.12468565 1528.10699427 -501.59951375 1529.42820703 -502.07434082 1530.74942017 C-502.30579268 1531.39343686 -502.53724455 1532.03745356 -502.77571011 1532.70098591 C-504.27105016 1536.86188376 -505.76604116 1541.02290689 -507.26086426 1545.18399048 C-508.77672412 1549.40360656 -510.29345964 1553.62290621 -511.81091309 1557.84194946 C-513.252669 1561.85055733 -514.69128833 1565.86027089 -516.12780762 1569.87075806 C-519.91087151 1580.41585251 -523.75748849 1590.9345368 -527.68181419 1601.42788887 C-529.10159123 1605.23047699 -530.51156895 1609.03671255 -531.92151356 1612.84295559 C-533.05904161 1615.91041007 -534.20604743 1618.97381783 -535.36593628 1622.03289795 C-536.64826157 1625.41554772 -537.90715088 1628.80611235 -539.16174316 1632.1991272 C-539.54717285 1633.19682129 -539.93260254 1634.19451538 -540.32971191 1635.22244263 C-543.61599529 1644.23599493 -542.44405561 1650.7353345 -539.93127441 1659.85147095 C-539.60385254 1661.05803345 -539.27643066 1662.26459595 -538.93908691 1663.50772095 C-538.38985883 1665.48692354 -537.8011772 1667.36383208 -537.0177002 1669.26382446 C-534.30057475 1676.08411643 -534.3502229 1682.91070682 -534.41516113 1690.15298462 C-534.43121919 1692.28165016 -534.41526164 1694.40841046 -534.39611816 1696.53701782 C-534.38002621 1706.94836088 -535.94850994 1715.14354258 -540.84533691 1724.2928772 C-541.91739112 1726.58951366 -542.53943129 1728.83864044 -543.18127441 1731.28897095 C-544.74889428 1736.76306598 -547.29305478 1740.90139275 -550.80627441 1745.35147095 C-551.3360791 1746.03080688 -551.86588379 1746.71014282 -552.41174316 1747.4100647 C-562.00361788 1758.2723864 -576.98492174 1762.82472802 -590.80627441 1765.35147095 C-592.02186035 1765.57576782 -593.23744629 1765.8000647 -594.48986816 1766.03115845 C-620.54412423 1769.98945333 -653.68831076 1769.65263848 -675.92736816 1753.84365845 C-681.90988554 1748.92898826 -686.50631917 1742.73997589 -690.80627441 1736.35147095 C-690.80627441 1735.69147095 -690.80627441 1735.03147095 -690.80627441 1734.35147095 C-689.00342484 1734.34267159 -689.00342484 1734.34267159 -687.16415405 1734.33369446 C-675.83445981 1734.27646843 -664.50495752 1734.20370719 -653.17545891 1734.11575603 C-647.3509141 1734.07103871 -641.52643946 1734.03178539 -635.70178223 1734.0050354 C-630.08010672 1733.97901631 -624.45870104 1733.93862329 -618.83719254 1733.88828468 C-616.69304893 1733.87160663 -614.54885865 1733.86009821 -612.40465927 1733.85385704 C-609.40006 1733.84422639 -606.39615252 1733.81617871 -603.39172363 1733.78384399 C-602.50627365 1733.78527908 -601.62082367 1733.78671417 -600.70854187 1733.78819275 C-595.6096887 1733.7106472 -592.31121578 1732.97851431 -587.80627441 1730.35147095 C-587.14627441 1730.35147095 -586.48627441 1730.35147095 -585.80627441 1730.35147095 C-585.49689941 1729.56772095 -585.18752441 1728.78397095 -584.86877441 1727.97647095 C-583.80627441 1725.35147095 -583.80627441 1725.35147095 -582.80627441 1723.35147095 C-581.41450743 1712.19740778 -584.31622684 1703.40479982 -588.2432251 1693.15194702 C-589.6392215 1689.50624447 -590.98397034 1685.84216857 -592.33361816 1682.17910767 C-593.05267953 1680.22957222 -593.77440038 1678.28101582 -594.49865723 1676.33340454 C-598.19714685 1666.37379527 -601.67089827 1656.34027041 -605.12585449 1646.2940979 C-606.90708555 1641.11686722 -608.69772306 1635.94290102 -610.48986816 1630.7694397 C-610.84704926 1629.73834076 -611.20423035 1628.70724182 -611.57223511 1627.64489746 C-615.40786823 1616.5901024 -619.3238378 1605.56409031 -623.24377441 1594.53897095 C-629.56964168 1576.74479832 -635.78279613 1558.91403352 -641.94125366 1541.0612793 C-647.32307356 1525.46487557 -652.77825076 1509.89663258 -658.30627441 1494.35147095 C-664.61189445 1476.61965777 -670.80448765 1458.8512743 -676.94152832 1441.06045532 C-682.32325828 1425.46432701 -687.77834783 1409.89635963 -693.30627441 1394.35147095 C-699.61189445 1376.61965777 -705.80448765 1358.8512743 -711.94152832 1341.06045532 C-717.32325828 1325.46432701 -722.77834783 1309.89635963 -728.30627441 1294.35147095 C-734.61189445 1276.61965777 -740.80448765 1258.8512743 -746.94152832 1241.06045532 C-752.32325828 1225.46432701 -757.77834783 1209.89635963 -763.30627441 1194.35147095 C-769.2230505 1177.71311222 -775.04762807 1161.04521241 -780.80627441 1144.35147095 C-786.58650427 1127.59553839 -792.43203427 1110.86510177 -798.36877441 1094.16397095 C-805.91630999 1072.92875017 -813.31949025 1051.64543198 -820.68811035 1030.3475647 C-823.11320176 1023.34225134 -825.55148404 1016.34162821 -827.99768066 1009.34365845 C-828.33668396 1008.37360367 -828.67568726 1007.40354889 -829.02496338 1006.40409851 C-830.61848821 1001.84518351 -832.21354098 997.28681037 -833.81066895 992.72915649 C-837.32259862 982.69376447 -840.74032511 972.63130314 -844.08114624 962.53771973 C-845.27729319 958.93135756 -846.48574918 955.32912989 -847.69299316 951.72647095 C-848.39349504 949.63230789 -849.09368349 947.53804025 -849.79382324 945.4437561 C-850.26530729 944.03440196 -850.73732318 942.62522564 -851.20983887 941.21621704 C-853.86495391 933.29707146 -856.48748562 925.37739827 -858.80627441 917.35147095 C-855.63962775 917.32206637 -852.47301695 917.3045378 -849.30627441 917.28897095 C-848.41939941 917.28059204 -847.53252441 917.27221313 -846.61877441 917.26358032 C-841.24804356 917.24383499 -836.11993779 917.56311201 -830.80627441 918.35147095 C-827.57883044 911.4833421 -825.00969688 904.47699753 -822.56799316 897.29678345 C-822.1705188 896.13903915 -821.77304443 894.98129486 -821.36352539 893.78846741 C-820.2922658 890.66651201 -819.22444111 887.54340732 -818.15795517 884.41981888 C-817.03722265 881.1406314 -815.9116143 877.86311984 -814.78601074 874.58560181 C-814.5608739 873.9300125 -814.33573706 873.2744232 -814.10377789 872.59896755 C-813.6487697 871.27402935 -813.19374467 869.94909693 -812.73870277 868.6241703 C-812.05579126 866.63522004 -811.37338132 864.6460983 -810.69108582 862.65693665 C-806.82786433 851.39671582 -802.92245051 840.15151222 -798.99377441 828.91397095 C-798.3877209 827.1792757 -797.78168247 825.44457519 -797.17565918 823.70986938 C-795.98155064 820.29254941 -794.78691848 816.87541304 -793.59191895 813.45840454 C-790.84598113 805.60611798 -788.10432469 797.75233721 -785.36361694 789.89822388 C-784.74255511 788.11848766 -784.12140048 786.33878383 -783.50015259 784.55911255 C-779.8810782 774.19092152 -776.27255587 763.81916761 -772.68127441 753.4413147 C-771.26476737 749.34881151 -769.84812502 745.25635521 -768.43127441 741.16397095 C-768.07562408 740.13665863 -767.71997375 739.10934631 -767.35354614 738.05090332 C-762.17694966 723.10556123 -756.92199382 708.18979051 -751.61877441 693.28897095 C-744.82133225 674.18759501 -738.19449653 655.02997918 -731.61877441 635.85147095 C-731.3818412 635.16044029 -731.14490799 634.46940964 -730.90079498 633.75743866 C-730.42394057 632.36662132 -729.94709258 630.97580178 -729.47025108 629.58498001 C-728.30380648 626.18285855 -727.13717574 622.78080098 -725.97033691 619.3788147 C-725.63069098 618.38850502 -725.63069098 618.38850502 -725.2841835 617.37818909 C-721.39538601 606.04220618 -717.46556933 594.72113178 -713.49377441 583.41397095 C-713.22376617 582.64528687 -712.95375793 581.87660278 -712.67556763 581.08462524 C-712.40650604 580.31868042 -712.13744446 579.5527356 -711.86022949 578.76358032 C-711.31485522 577.21086193 -710.7695266 575.6581275 -710.22424316 574.1053772 C-709.95382706 573.33537384 -709.68341095 572.56537048 -709.40480042 571.77203369 C-705.67549031 561.14222262 -701.99425449 550.49567274 -698.30627441 539.85147095 C-692.88480406 524.20615556 -687.44087735 508.56906903 -681.96203613 492.9437561 C-677.04681819 478.9233448 -672.17101367 464.8894702 -667.30627441 450.85147095 C-661.8845633 435.20623846 -656.44087768 419.56906997 -650.96203613 403.9437561 C-646.04681819 389.9233448 -641.17101367 375.8894702 -636.30627441 361.85147095 C-630.88362551 346.20353232 -625.43993555 330.56332182 -619.95901489 314.93569946 C-616.53962336 305.18472379 -613.13530423 295.42874396 -609.75549316 285.66397095 C-609.23528847 284.16113808 -609.23528847 284.16113808 -608.70457458 282.62794495 C-607.9938047 280.57443597 -607.28304532 278.52092337 -606.57229614 276.46740723 C-606.21638397 275.43914825 -605.8604718 274.41088928 -605.49377441 273.35147095 C-605.13617035 272.31829742 -604.77856628 271.2851239 -604.41012573 270.22064209 C-598.87865865 254.24714357 -593.25371324 238.30878628 -587.58453369 222.38372803 C-581.62210656 205.62004234 -575.81726671 188.80444555 -570.05200195 171.97225952 C-556.20905917 131.5602725 -556.20905917 131.5602725 -550.72994995 116.09954834 C-550.16898284 114.51302067 -549.61153087 112.92524434 -549.05813599 111.33605957 C-540.18773162 85.89954092 -525.35626177 65.52678393 -500.81799316 53.36611938 C-498.74252026 52.37430912 -496.65578357 51.41627002 -494.55627441 50.47647095 C-493.91915527 50.18997681 -493.28203613 49.90348267 -492.62561035 49.60830688 C-484.16913934 45.99156607 -475.42459918 44.95586018 -466.33154297 44.09912109 C-465.20228063 43.98820928 -464.07301829 43.87729747 -462.90953588 43.76302469 C-459.13016629 43.39318686 -455.35007881 43.0312923 -451.56994629 42.66934204 C-448.8424565 42.40468023 -446.11513321 42.13831995 -443.38780212 41.87202835 C-437.47896004 41.29599048 -431.56973486 40.72402731 -425.66023254 40.15480423 C-416.9315652 39.31401188 -408.20350134 38.46708258 -399.47556823 37.61870621 C-385.86522682 36.29584757 -372.25452316 34.97676279 -358.64358002 33.66011097 C-337.7044575 31.63445823 -316.76667419 29.59522977 -295.82926345 27.55196887 C-264.20872431 24.46630334 -232.58697059 21.39337431 -200.96392459 18.33350505 C-196.54548221 17.90597125 -192.12704786 17.47835458 -187.70861816 17.0506897 C-186.39397817 16.9234498 -186.39397817 16.9234498 -185.05277979 16.79363939 C-170.53390269 15.38817358 -156.01585951 13.97425288 -141.49806958 12.55760618 C-126.26052486 11.07089979 -111.02218365 9.59257798 -95.78306341 8.12210786 C-86.53937127 7.22990799 -77.29632307 6.3315702 -68.05407184 5.42456339 C-61.79668765 4.81111952 -55.53853875 4.20592426 -49.27974612 3.60702266 C-45.69871067 3.26412351 -42.11809136 2.9178994 -38.53835297 2.56169319 C-25.70348417 1.28696701 -12.90535286 0.12291667 0 0 Z " fill="#526A89" transform="translate(1868.8062744140625,156.64852905273438)"/>
<path d="M0 0 C3.24946616 4.87419924 4.30226031 9.42074324 5.33764648 15.1003418 C5.99930667 17.99696474 6.96132057 20.56825656 8.04296875 23.33203125 C10.38148522 30.24509798 10.57525936 36.82622899 10.46655273 44.02783203 C10.43743033 46.13002948 10.44602523 48.2297151 10.45898438 50.33203125 C10.44271354 60.66355218 8.82027378 68.86212005 3.9609375 77.94140625 C2.88888329 80.23804271 2.26684312 82.48716949 1.625 84.9375 C0.05738014 90.41159503 -2.48678037 94.5499218 -6 99 C-6.52980469 99.67933594 -7.05960938 100.35867188 -7.60546875 101.05859375 C-17.19734347 111.92091545 -32.17864733 116.47325707 -46 119 C-47.21558594 119.22429687 -48.43117188 119.44859375 -49.68359375 119.6796875 C-75.73784982 123.63798239 -108.88203635 123.30116753 -131.12109375 107.4921875 C-137.10361113 102.57751731 -141.70004475 96.38850494 -146 90 C-146 89.34 -146 88.68 -146 88 C-144.21713593 88.00119339 -144.21713593 88.00119339 -142.39825439 88.00241089 C-131.15865491 88.00602416 -119.91951105 87.97805605 -108.68005753 87.9197216 C-102.90264436 87.89073595 -97.12563486 87.87260754 -91.34814453 87.87988281 C-85.7651701 87.88650384 -80.18299139 87.86383292 -74.60018158 87.82144547 C-72.47773829 87.81036361 -70.35521383 87.80956928 -68.2327652 87.81957626 C-51.70616158 87.93418154 -51.70616158 87.93418154 -37 81 C-35.87854584 80.21409988 -35.87854584 80.21409988 -34.73443604 79.412323 C-25.87160409 72.4280442 -21.99311477 62.18436538 -18.3984375 51.81640625 C-17.99468903 50.68025375 -17.59094055 49.54410126 -17.17495728 48.3735199 C-15.89810202 44.77335795 -14.63624306 41.16815713 -13.375 37.5625 C-12.52184071 35.14743035 -11.66768245 32.73271336 -10.8125 30.31835938 C-9.23643169 25.86617941 -7.6668293 21.41182385 -6.10302734 16.95532227 C-4.1101552 11.28829138 -2.06558056 5.64089227 0 0 Z " fill="#000000" transform="translate(1324,1803)"/>
<path d="M0 0 C3.16664666 -0.02940458 6.33325747 -0.04693315 9.5 -0.0625 C10.386875 -0.07087891 11.27375 -0.07925781 12.1875 -0.08789062 C17.54887991 -0.10760158 22.71670502 0.0366469 28 1 C29 3 29 3 27.9519043 6.69946289 C27.41762757 8.29332858 26.87441528 9.88421575 26.32421875 11.47265625 C26.03899857 12.31090439 25.75377838 13.14915253 25.45991516 14.01280212 C24.85401759 15.78690448 24.24430357 17.55970725 23.63110352 19.33129883 C22.69141997 22.0511539 21.76778481 24.77608761 20.84570312 27.50195312 C20.25616695 29.22168309 19.66570321 30.94109541 19.07421875 32.66015625 C18.79704514 33.47992447 18.51987152 34.29969269 18.23429871 35.14430237 C16.2299447 40.88502765 16.2299447 40.88502765 14 42 C12.00222039 36.34139551 10.00849361 30.6813861 8.01855469 25.02001953 C7.34063916 23.0931925 6.66160618 21.16675824 5.98144531 19.24072266 C5.00553968 16.47660509 4.03362537 13.71111256 3.0625 10.9453125 C2.75626709 10.0806839 2.45003418 9.2160553 2.13452148 8.32522583 C1.85423096 7.52454681 1.57394043 6.7238678 1.28515625 5.89892578 C1.03644775 5.1927713 0.78773926 4.48661682 0.53149414 3.75906372 C0 2 0 2 0 0 Z " fill="#000000" transform="translate(1010,1074)"/>
</svg>
